<!-- Generated by IcoMoon.io -->
<svg version="1.1" xmlns="http://www.w3.org/2000/svg" width="640" height="640" fill="#5F9DF7" viewBox="0 0 640 640">
<title></title>
<g id="icomoon-ignore">
</g>
<path d="M544 190.4v331.232c0 16.704-14.464 24.672-32 37.12-14.080 10.016-32-2.4-32-18.784 0 0 0-316.96 0-323.648 0-6.752-2.368-13.184-10.048-17.12s-247.616-130.080-247.616-130.080c-3.872-1.44-20.768-12.096-43.296-0.512-21.408 11.008-33.056 22.976-36.032 28.608l261.76 143.424c6.944 3.648 11.232 9.28 11.232 16.512v345.664c0 7.36-4.544 15.232-11.808 18.72-3.328 1.664-7.008 2.464-10.656 2.464-4.32 0-8.672-1.056-12.352-3.328-6.88-4.192-248.768-152.512-264.736-162.144-7.68-4.608-16.672-14.048-16.864-21.056l-3.584-329.152c0-6.336-0.736-17.504 9.248-33.024 22.304-34.688 100.128-74.144 139.52-53.696l287.968 145.76c6.944 3.584 11.264 10.752 11.264 23.040z"></path>
</svg>
